<svg width="21" height="21" viewBox="0 0 21 21" fill="none" xmlns="http://www.w3.org/2000/svg">
<path d="M10.5015 21C9.98798 20.9993 9.47531 20.9604 8.96835 20.8837C8.57823 20.8281 8.2125 20.6715 7.91252 20.4315C7.61255 20.1915 7.39029 19.8778 7.2709 19.5257C7.08288 18.9523 6.70209 18.451 6.1852 18.0965C5.66831 17.742 5.04296 17.5533 4.4022 17.5583C4.18248 17.5584 3.9634 17.5804 3.74868 17.6241C3.60398 17.6528 3.45647 17.6672 3.30856 17.6672C2.99428 17.6666 2.68421 17.5995 2.40151 17.471C2.11881 17.3425 1.87079 17.1558 1.67597 16.925C1.04762 16.1661 0.531883 15.3312 0.14281 14.4428C0.000234275 14.0979 -0.0364337 13.7225 0.03695 13.3591C0.110334 12.9957 0.290843 12.6587 0.55808 12.3863C1.05838 11.8638 1.33505 11.1869 1.33505 10.4852C1.33505 9.78361 1.05838 9.10667 0.55808 8.5842C0.290781 8.31182 0.110231 7.97485 0.0368443 7.61142C-0.0365421 7.24799 0.000163318 6.87259 0.14281 6.52767C0.522853 5.6352 1.03929 4.79911 1.67597 4.04553C1.8782 3.8134 2.13312 3.62634 2.42223 3.49794C2.71134 3.36955 3.02736 3.30305 3.34736 3.30328C3.49608 3.30312 3.64441 3.31758 3.78991 3.3464C4.00366 3.39107 4.22199 3.41371 4.441 3.41393C5.08076 3.41296 5.70364 3.2217 6.2197 2.86776C6.73577 2.51382 7.11832 2.01551 7.31212 1.44479C7.43136 1.0927 7.65358 0.778915 7.9536 0.539001C8.25361 0.299087 8.61943 0.142641 9.00958 0.0873932C9.51235 0.0289103 10.0185 -0.000276329 10.5252 1.97146e-06C11.0427 0.000145145 11.5597 0.0293279 12.0735 0.0873932C12.4636 0.142641 12.8294 0.299087 13.1295 0.539001C13.4295 0.778915 13.6517 1.0927 13.7709 1.44479C13.9904 2.11979 14.4802 2.68916 15.138 3.03373C15.5961 3.28009 16.1149 3.41054 16.6433 3.41223C16.8619 3.41204 17.0798 3.38939 17.2931 3.3447C17.4386 3.31587 17.587 3.30142 17.7357 3.30157C18.0504 3.29764 18.3616 3.36272 18.6446 3.49162C18.9276 3.62051 19.1744 3.80963 19.3652 4.04383C19.9576 4.83162 20.4578 5.67671 20.8572 6.56456C20.9998 6.90948 21.0365 7.28488 20.9632 7.64831C20.8898 8.01174 20.7092 8.3487 20.4419 8.62109C19.9416 9.14356 19.6649 9.8205 19.6649 10.5221C19.6649 11.2238 19.9416 11.9007 20.4419 12.4232C20.7092 12.6956 20.8897 13.0326 20.963 13.396C21.0364 13.7594 20.9998 14.1348 20.8572 14.4797C20.4782 15.3727 19.9617 16.2089 19.324 16.9618C19.1255 17.1925 18.8745 17.3788 18.5894 17.5072C18.3042 17.6356 17.9921 17.7028 17.6757 17.7041C17.533 17.7044 17.3906 17.6899 17.2513 17.661C17.038 17.6163 16.82 17.5936 16.6014 17.5934C15.9616 17.5947 15.3387 17.7861 14.8225 18.1399C14.3063 18.4938 13.9235 18.992 13.7291 19.5626C13.6098 19.9147 13.3875 20.2285 13.0875 20.4685C12.7876 20.7085 12.4218 20.8651 12.0316 20.9206C11.5339 20.9625 11.0029 21 10.5015 21ZM10.3063 6.81311C9.467 6.81311 8.64653 7.04609 7.94867 7.48257C7.25081 7.91906 6.70689 8.53945 6.3857 9.2653C6.06451 9.99115 5.98047 10.7898 6.14422 11.5604C6.30796 12.331 6.71212 13.0388 7.30561 13.5943C7.89909 14.1498 8.65523 14.5282 9.47842 14.6814C10.3016 14.8347 11.1549 14.7561 11.9303 14.4554C12.7057 14.1547 13.3685 13.6456 13.8348 12.9923C14.3011 12.3391 14.5499 11.5711 14.5499 10.7854C14.5488 9.73224 14.1014 8.72247 13.3058 7.97774C12.5102 7.23301 11.4314 6.81416 10.3063 6.81311ZM10.3063 13.0553C9.8267 13.0553 9.35787 12.9222 8.95909 12.6728C8.56031 12.4234 8.2495 12.0689 8.06596 11.6541C7.88243 11.2393 7.8344 10.7829 7.92797 10.3426C8.02154 9.90229 8.25249 9.49783 8.59162 9.18038C8.93076 8.86293 9.36284 8.64674 9.83323 8.55915C10.3036 8.47157 10.7912 8.51652 11.2343 8.68832C11.6774 8.86013 12.0561 9.15107 12.3226 9.52435C12.589 9.89763 12.7312 10.3365 12.7312 10.7854C12.7303 11.3872 12.4745 11.964 12.0199 12.3895C11.5654 12.815 10.9491 13.0544 10.3063 13.0553Z" fill="white"/>
</svg>
