<svg width="159" height="136" viewBox="0 0 159 136" fill="none" xmlns="http://www.w3.org/2000/svg">
<g filter="url(#filter0_d)">
<path fill-rule="evenodd" clip-rule="evenodd" d="M79 26C56.9086 26 39 43.9086 39 66V67.4484C33.7966 71.4402 27.9295 77.536 30.7196 82C32.4681 84.7974 36.2543 84.5787 39 83.5673V102H90.5C103.258 102 114.059 93.6166 117.693 82.058C120.135 83.7075 125.752 85.0967 128 81.5C130.92 76.8287 124.36 70.3705 119 66.4062V66C119 43.9086 101.091 26 79 26Z" fill="url(#paint0_linear)"/>
<path fill-rule="evenodd" clip-rule="evenodd" d="M44 69.9144L42.0434 71.4155C39.6094 73.2827 37.3199 75.4279 35.9869 77.3733C35.3809 78.2577 35.1256 78.8823 35.0374 79.2425C35.0387 79.2426 35.04 79.2428 35.0412 79.2429C35.569 79.3019 36.4024 79.1958 37.2717 78.8755L44 76.397V97H90.5C101.013 97 109.925 90.0937 112.923 80.5583L114.934 74.1615L120.491 77.9144C120.673 78.0373 121.066 78.2488 121.619 78.4358C122.161 78.6191 122.71 78.7286 123.18 78.7531C123.395 78.7644 123.561 78.7564 123.682 78.7425C123.581 78.3294 123.273 77.6149 122.551 76.6148C121.045 74.5285 118.536 72.2818 116.027 70.4261L114 68.927V66C114 46.67 98.33 31 79 31C59.6701 31 44 46.67 44 66V69.9144ZM35.0002 79.485C35.0002 79.485 35.0001 79.4841 35 79.4822L35.0002 79.485ZM39 102H90.5C101.465 102 110.984 95.8077 115.75 86.7292C116.53 85.2445 117.182 83.6826 117.693 82.058C118.811 82.8131 120.594 83.5138 122.415 83.7064C124.572 83.9345 126.781 83.4501 128 81.5C130.92 76.8287 124.36 70.3705 119 66.4062V66C119 43.9086 101.091 26 79 26C56.9086 26 39 43.9086 39 66V67.4484C33.7966 71.4402 27.9295 77.536 30.7196 82C31.499 83.247 32.6834 83.8947 34 84.14C35.637 84.4449 37.4783 84.1279 39 83.5673V102Z" fill="black"/>
<path d="M70 67.5C70 74.4036 66.4183 80 62 80C57.5817 80 54 74.4036 54 67.5C54 60.5964 57.5817 55 62 55C66.4183 55 70 60.5964 70 67.5Z" fill="black"/>
<path d="M105 67.5C105 74.4036 101.418 80 97 80C92.5817 80 89 74.4036 89 67.5C89 60.5964 92.5817 55 97 55C101.418 55 105 60.5964 105 67.5Z" fill="black"/>
<path d="M55 80C55 82.7614 52.7614 85 50 85C47.2386 85 45 82.7614 45 80C45 77.2386 47.2386 75 50 75C52.7614 75 55 77.2386 55 80Z" fill="#CCADFF"/>
<path d="M115 80C115 82.7614 112.761 85 110 85C107.239 85 105 82.7614 105 80C105 77.2386 107.239 75 110 75C112.761 75 115 77.2386 115 80Z" fill="#CCADFF"/>
<path fill-rule="evenodd" clip-rule="evenodd" d="M79.5 62.3658L84.3016 66.4815C85.1403 67.2003 85.2374 68.4629 84.5185 69.3016C83.7997 70.1402 82.5371 70.2374 81.6985 69.5185L79.5 67.6342L77.3016 69.5185C76.463 70.2374 75.2004 70.1402 74.4815 69.3016C73.7627 68.4629 73.8598 67.2003 74.6985 66.4815L79.5 62.3658Z" fill="black"/>
</g>
<defs>
<filter id="filter0_d" x="0" y="0" width="158.72" height="136" filterUnits="userSpaceOnUse" color-interpolation-filters="sRGB">
<feFlood flood-opacity="0" result="BackgroundImageFix"/>
<feColorMatrix in="SourceAlpha" type="matrix" values="0 0 0 0 0 0 0 0 0 0 0 0 0 0 0 0 0 0 127 0"/>
<feOffset dy="4"/>
<feGaussianBlur stdDeviation="15"/>
<feColorMatrix type="matrix" values="0 0 0 0 0.373412 0 0 0 0 0.270588 0 0 0 0 0.541176 0 0 0 0.5 0"/>
<feBlend mode="normal" in2="BackgroundImageFix" result="effect1_dropShadow"/>
<feBlend mode="normal" in="SourceGraphic" in2="effect1_dropShadow" result="shape"/>
</filter>
<linearGradient id="paint0_linear" x1="89" y1="26" x2="66" y2="109" gradientUnits="userSpaceOnUse">
<stop stop-color="white"/>
<stop offset="1" stop-color="#EAEAEA"/>
</linearGradient>
</defs>
</svg>
