<svg width="72" height="13" viewBox="0 0 72 13" fill="none" xmlns="http://www.w3.org/2000/svg">
<path d="M0.737313 11H2.51331V7.16H5.87331V11H7.63731V2.12H5.87331V5.612H2.51331V2.12H0.737313V11ZM10.4193 11H12.1953V2.12H10.4193V11ZM18.5923 7.664C19.2403 7.664 19.9243 7.292 20.5363 6.32L19.6123 5.624C19.3243 6.14 19.0003 6.404 18.6163 6.404C17.8723 6.404 17.3683 5.348 16.2643 5.348C15.6043 5.348 14.9323 5.72 14.3083 6.704L15.2323 7.4C15.5203 6.872 15.8563 6.608 16.2283 6.608C16.9843 6.608 17.4763 7.664 18.5923 7.664ZM32.8467 3.08C32.4987 2.516 31.7067 1.724 31.0707 1.172L29.9907 1.904C30.6387 2.48 31.3827 3.332 31.6947 3.884L32.8467 3.08ZM31.3107 5.984C30.9987 6.56 30.6027 7.1 30.1707 7.616C30.0387 7.004 29.9187 6.308 29.8227 5.588H32.9427V4.232H29.6787C29.5827 3.176 29.5347 2.06 29.5587 0.943999H28.0587C28.0707 2.036 28.1067 3.152 28.2027 4.232H25.8987V2.612C26.5947 2.468 27.2547 2.312 27.8547 2.132L26.8947 0.92C25.6707 1.316 23.8107 1.7 22.1307 1.928C22.2867 2.252 22.4787 2.78 22.5387 3.128C23.1507 3.056 23.8107 2.972 24.4587 2.864V4.232H22.1907V5.588H24.4587V7.196C23.5107 7.364 22.6467 7.496 21.9627 7.604L22.3107 9.044C22.9467 8.924 23.6907 8.768 24.4587 8.612V10.352C24.4587 10.544 24.3867 10.604 24.1707 10.604C23.9547 10.616 23.2587 10.628 22.5867 10.592C22.7907 10.988 23.0307 11.636 23.0907 12.032C24.0627 12.044 24.7827 11.984 25.2507 11.756C25.7307 11.528 25.8987 11.144 25.8987 10.364V8.312L27.8547 7.916L27.7467 6.62C27.1347 6.728 26.5107 6.848 25.8987 6.956V5.588H28.3347C28.4787 6.764 28.6827 7.856 28.9467 8.804C28.1187 9.488 27.1947 10.076 26.2707 10.496C26.6187 10.82 27.0147 11.312 27.2187 11.648C27.9867 11.252 28.7427 10.76 29.4387 10.184C29.9547 11.36 30.6267 12.08 31.5027 12.08C32.5947 12.08 33.0387 11.552 33.2667 9.452C32.8827 9.296 32.4027 8.972 32.0907 8.636C32.0307 10.052 31.8867 10.628 31.6347 10.628C31.2747 10.628 30.9027 10.076 30.5787 9.152C31.3587 8.372 32.0307 7.496 32.5707 6.524L31.3107 5.984ZM42.8667 2.852H37.3707V2.24H42.8667V2.852ZM42.8667 4.412H37.3707V3.788H42.8667V4.412ZM44.3187 1.244H35.9787V5.408H44.3187V1.244ZM41.0067 9.332H44.7027V8.096H41.0067V7.196H45.4587V5.936H34.8747V7.196H39.5547V10.244C38.7867 10.004 38.1987 9.56 37.8267 8.744C37.9227 8.396 38.0187 8.036 38.1027 7.652L36.6747 7.436C36.3987 9.044 35.6667 10.316 34.4427 11.072C34.7667 11.276 35.3187 11.804 35.5227 12.068C36.2187 11.588 36.7707 10.952 37.2027 10.16C38.2107 11.552 39.6987 11.864 41.8947 11.864H45.3147C45.3867 11.444 45.6027 10.82 45.7947 10.496C44.9427 10.532 42.6387 10.532 41.9667 10.532C41.6427 10.532 41.3187 10.52 41.0067 10.496V9.332ZM58.1187 3.908V2.54H52.2627C52.4307 2.072 52.5867 1.604 52.7307 1.136L51.2547 0.8C51.1227 1.376 50.9427 1.952 50.7147 2.54H47.4267V3.908H50.1027C49.3587 5.372 48.3387 6.704 47.0067 7.568C47.2587 7.892 47.6307 8.468 47.8107 8.828C48.3747 8.432 48.8667 8 49.3347 7.508V10.976H50.7627V7.076H52.6587V12.032H54.0987V7.076H56.0907V9.416C56.0907 9.572 56.0307 9.62 55.8387 9.62C55.6707 9.62 55.0347 9.62 54.4827 9.596C54.6627 9.956 54.8667 10.496 54.9267 10.892C55.8267 10.892 56.4747 10.88 56.9307 10.676C57.4107 10.46 57.5427 10.1 57.5427 9.44V5.72H54.0987V4.34H52.6587V5.72H50.7267C51.0987 5.144 51.4107 4.532 51.6987 3.908H58.1187ZM69.6627 1.196H60.7587V2.468H68.2947V3.044H61.2987V4.028H68.2947V4.592H60.7587V5.852H69.6627V1.196ZM68.5947 9.44C69.0147 8.852 69.5427 8 69.9987 7.208L68.7627 6.5C68.4747 7.232 67.9347 8.204 67.5267 8.792L68.5947 9.44ZM61.7187 6.548C61.4667 7.364 61.0107 8.228 60.4347 8.78L61.6347 9.488C62.2467 8.852 62.6667 7.892 62.9427 7.016L61.7187 6.548ZM64.6347 6.092C64.4067 8.564 64.0467 10.16 59.7027 10.916C59.9907 11.204 60.3267 11.78 60.4587 12.152C63.4107 11.552 64.7787 10.532 65.4627 9.104C66.3747 10.712 67.7787 11.624 70.2027 12.02C70.3587 11.612 70.7307 11.024 71.0187 10.712C68.1507 10.424 66.6627 9.344 65.9787 7.364C66.0507 6.956 66.0987 6.536 66.1467 6.092H64.6347Z" fill="white"/>
</svg>
