<svg width="21" height="21" viewBox="0 0 21 21" fill="none" xmlns="http://www.w3.org/2000/svg">
<g clip-path="url(#clip0)">
<path d="M10.3929 2.20605C5.81318 2.20605 2.10059 5.91866 2.10059 10.4984C2.10059 15.0781 5.8132 18.7907 10.3929 18.7907C14.9726 18.7907 18.6852 15.0781 18.6852 10.4984C18.6852 5.91865 14.9726 2.20605 10.3929 2.20605ZM14.9968 11.4472C14.4733 13.5326 12.5873 15.077 10.3395 15.077C8.91598 15.077 7.63788 14.4573 6.75851 13.4734C6.60672 13.3035 6.72543 13.0333 6.95328 13.0306C8.03609 13.0173 9.44967 12.8204 10.9637 12.4394C12.3986 12.0783 13.6755 11.614 14.6224 11.1401C14.826 11.0382 15.0523 11.2263 14.9968 11.4472ZM15.9195 9.18139C15.2749 9.80586 13.2146 10.6579 10.6914 11.2929C8.14907 11.9328 5.91584 12.1563 5.06676 11.9024C4.86304 11.8414 4.73813 11.7534 4.70875 11.6366C4.65075 11.4063 4.96998 11.0989 5.56091 10.7628C5.54464 10.6021 5.53625 10.4389 5.53625 10.2739C5.53625 7.62113 7.68673 5.47064 10.3395 5.47064C12.3257 5.47064 14.0301 6.67625 14.7613 8.39552C15.5559 8.39202 16.0606 8.51155 16.124 8.76352C16.1543 8.88398 16.0802 9.02576 15.9195 9.18139Z" fill="black"/>
</g>
<defs>
<clipPath id="clip0">
<rect width="21" height="21" fill="white"/>
</clipPath>
</defs>
</svg>
