<svg width="19" height="19" viewBox="0 0 19 19" fill="none" xmlns="http://www.w3.org/2000/svg">
<path d="M9.49999 0C4.25329 0 0 4.25331 0 9.5C0 14.7467 4.25331 19 9.49999 19C14.7467 19 19 14.7467 19 9.5C19 4.25329 14.7467 0 9.49999 0ZM14.7744 10.587C14.1746 12.9762 12.014 14.7455 9.4388 14.7455C7.80798 14.7455 6.34374 14.0355 5.3363 12.9082C5.16241 12.7137 5.2984 12.4042 5.55943 12.401C6.79995 12.3858 8.41939 12.1603 10.1539 11.7237C11.7978 11.31 13.2607 10.7781 14.3455 10.2352C14.5788 10.1184 14.838 10.3339 14.7744 10.587ZM15.8315 7.99121C15.093 8.70663 12.7327 9.68276 9.84202 10.4102C6.92938 11.1433 4.3709 11.3994 3.39816 11.1085C3.16478 11.0387 3.02167 10.9378 2.98802 10.804C2.92156 10.5402 3.28729 10.1879 3.96429 9.8029C3.94565 9.61879 3.93603 9.43192 3.93603 9.24282C3.93603 6.20371 6.39971 3.74004 9.4388 3.74004C11.7143 3.74004 13.6669 5.12123 14.5046 7.09088C15.4149 7.08688 15.9932 7.22381 16.0658 7.51249C16.1005 7.65048 16.0156 7.81291 15.8315 7.99121Z" fill="#E3DEEA"/>
</svg>
