<svg width="17" height="19" viewBox="0 0 17 19" fill="none" xmlns="http://www.w3.org/2000/svg">
<path d="M10.399 10.4912H6.5994C4.91233 10.4795 3.28957 11.1377 2.08741 12.3214C0.885242 13.5051 0.20193 15.1175 0.1875 16.8045V17.1797C0.1875 19 3.01349 19 6.5994 19H10.399C13.8425 19 16.8109 19 16.8109 17.1797V16.8057C16.7962 15.1188 16.1128 13.5066 14.9107 12.323C13.7086 11.1393 12.086 10.481 10.399 10.4924V10.4912ZM8.30924 10.0091C9.29573 9.99388 10.2557 9.68744 11.0686 9.12828C11.8814 8.56912 12.5109 7.78219 12.8778 6.86637C13.2448 5.95055 13.3329 4.9467 13.1311 3.98097C12.9292 3.01523 12.4464 2.13069 11.7434 1.4385C11.0404 0.746304 10.1484 0.27734 9.17969 0.0905344C8.21093 -0.0962714 7.20857 0.00741461 6.29857 0.388564C5.38856 0.769712 4.6115 1.41132 4.06504 2.23276C3.51858 3.0542 3.2271 4.01884 3.22722 5.00544C3.23172 5.66786 3.36681 6.32289 3.62477 6.93304C3.88272 7.54319 4.25847 8.09648 4.73051 8.56124C5.20255 9.026 5.76161 9.3931 6.37569 9.64155C6.98978 9.88999 7.64683 10.0149 8.30924 10.0091Z" fill="#4C458B"/>
</svg>
