<svg width="30" height="30" viewBox="0 0 30 30" fill="none" xmlns="http://www.w3.org/2000/svg">
<path d="M15.0003 0.459473C6.95576 0.459473 0.434448 6.98081 0.434448 15.0254C0.434448 23.0699 6.95576 29.5912 15.0003 29.5912C23.0448 29.5912 29.5661 23.0699 29.5661 15.0254C29.5661 6.98081 23.0449 0.459473 15.0003 0.459473H15.0003ZM21.2467 19.3834C21.7681 19.905 21.7681 20.7503 21.2467 21.2718C20.7253 21.7932 19.8798 21.7932 19.3584 21.2718L15.0003 16.9137L10.6421 21.2717C10.1206 21.7931 9.27534 21.7931 8.75391 21.2717C8.23231 20.7503 8.23231 19.905 8.75391 19.3834L13.1119 15.0254L8.75388 10.6673C8.23231 10.1458 8.23231 9.30036 8.75388 8.77894C9.27534 8.25751 10.1206 8.25751 10.6421 8.77894L15.0003 13.137L19.3584 8.77894C19.8798 8.25751 20.7253 8.25751 21.2467 8.77894C21.7681 9.30036 21.7681 10.1458 21.2467 10.6673L16.8886 15.0254L21.2467 19.3834Z" fill="white"/>
</svg>
