<svg width="146" height="71" viewBox="0 0 146 71" fill="none" xmlns="http://www.w3.org/2000/svg">
<path d="M5.508 0.856H15.66L19.404 15.112H19.656C19.752 14.512 19.848 13.912 19.944 13.312C20.04 12.688 20.172 12.088 20.34 11.512L23.4 0.856H33.444L37.908 28H28.368L27.036 13.132H26.856C26.76 13.588 26.664 14.044 26.568 14.5C26.472 14.956 26.352 15.4 26.208 15.832L22.284 28H16.524L12.996 16.516C12.852 15.94 12.72 15.376 12.6 14.824C12.504 14.272 12.432 13.708 12.384 13.132H12.06C12.012 13.684 11.964 14.236 11.916 14.788C11.892 15.316 11.856 15.856 11.808 16.408L10.656 28H1.116L5.508 0.856ZM57.5283 18.172L56.3763 13.384C56.2323 12.808 56.1123 12.232 56.0163 11.656C55.9203 11.056 55.8243 10.468 55.7283 9.892H55.3683L53.5683 18.172H57.5283ZM51.0123 28H40.5723L50.0043 0.856H60.9123L70.5963 28H60.1563L59.2563 24.616H51.8043L51.0123 28ZM69.7022 0.856H90.4382V9.676L85.0022 9.424V28H75.1382V9.424L69.7022 9.676V0.856ZM114.944 11.872C114.152 11.128 113.264 10.492 112.28 9.964C111.32 9.412 110.276 9.136 109.148 9.136C108.404 9.136 107.708 9.28 107.06 9.568C106.412 9.832 105.836 10.204 105.332 10.684C104.852 11.164 104.468 11.728 104.18 12.376C103.916 13 103.784 13.684 103.784 14.428C103.784 15.172 103.928 15.868 104.216 16.516C104.528 17.164 104.936 17.728 105.44 18.208C105.944 18.664 106.52 19.036 107.168 19.324C107.84 19.588 108.548 19.72 109.292 19.72C110.444 19.72 111.476 19.492 112.388 19.036C113.3 18.58 114.152 17.968 114.944 17.2L114.656 27.352C114.248 27.544 113.732 27.712 113.108 27.856C112.508 27.976 111.872 28.084 111.2 28.18C110.552 28.276 109.904 28.336 109.256 28.36C108.608 28.408 108.068 28.432 107.636 28.432C105.692 28.432 103.88 28.084 102.2 27.388C100.544 26.668 99.0915 25.696 97.8435 24.472C96.5955 23.224 95.6115 21.772 94.8915 20.116C94.1955 18.436 93.8475 16.624 93.8475 14.68C93.8475 12.712 94.2075 10.864 94.9275 9.136C95.6715 7.384 96.6795 5.872 97.9515 4.6C99.2235 3.304 100.724 2.284 102.452 1.54C104.18 0.795999 106.04 0.423999 108.032 0.423999C109.16 0.423999 110.276 0.519999 111.38 0.711999C112.508 0.903998 113.6 1.18 114.656 1.54L114.944 11.872ZM120.244 0.856H129.748V10H135.796V0.856H145.3V28H135.796V18.568H129.748V28H120.244V0.856ZM3.852 60.28L4.356 60.676C5.244 61.372 6.204 61.96 7.236 62.44C8.268 62.92 9.36 63.16 10.512 63.16C10.752 63.16 11.016 63.136 11.304 63.088C11.616 63.04 11.892 62.956 12.132 62.836C12.396 62.692 12.612 62.524 12.78 62.332C12.948 62.116 13.032 61.852 13.032 61.54C13.032 61.228 12.96 60.988 12.816 60.82C12.672 60.628 12.492 60.484 12.276 60.388C12.06 60.292 11.82 60.22 11.556 60.172C11.292 60.124 11.052 60.076 10.836 60.028L8.856 59.668C7.896 59.5 6.984 59.236 6.12 58.876C5.256 58.492 4.5 58 3.852 57.4C3.204 56.8 2.688 56.092 2.304 55.276C1.944 54.46 1.764 53.524 1.764 52.468C1.764 50.86 2.1 49.432 2.772 48.184C3.444 46.936 4.332 45.892 5.436 45.052C6.54 44.188 7.788 43.54 9.18 43.108C10.596 42.652 12.048 42.424 13.536 42.424C16.656 42.424 19.524 43.216 22.14 44.8L19.476 51.748C18.636 51.172 17.736 50.692 16.776 50.308C15.84 49.9 14.832 49.696 13.752 49.696C13.536 49.696 13.296 49.72 13.032 49.768C12.792 49.816 12.564 49.9 12.348 50.02C12.156 50.116 11.988 50.26 11.844 50.452C11.7 50.62 11.628 50.848 11.628 51.136C11.628 51.4 11.688 51.604 11.808 51.748C11.952 51.892 12.12 52.012 12.312 52.108C12.528 52.204 12.744 52.276 12.96 52.324C13.2 52.372 13.416 52.42 13.608 52.468L15.84 52.972C16.872 53.212 17.832 53.536 18.72 53.944C19.608 54.352 20.364 54.868 20.988 55.492C21.636 56.116 22.14 56.86 22.5 57.724C22.86 58.588 23.04 59.596 23.04 60.748C23.04 62.38 22.704 63.796 22.032 64.996C21.36 66.196 20.472 67.204 19.368 68.02C18.264 68.836 17.004 69.448 15.588 69.856C14.172 70.24 12.732 70.432 11.268 70.432C9.54 70.432 7.752 70.216 5.904 69.784C4.056 69.328 2.364 68.716 0.828 67.948L3.852 60.28ZM41.9431 51.352C41.1511 51.352 40.4431 51.496 39.8191 51.784C39.1951 52.048 38.6671 52.432 38.2351 52.936C37.8031 53.416 37.4671 53.98 37.2271 54.628C36.9871 55.252 36.8671 55.924 36.8671 56.644C36.8671 58.204 37.3351 59.464 38.2711 60.424C39.2071 61.384 40.4311 61.864 41.9431 61.864C43.4551 61.864 44.6791 61.384 45.6151 60.424C46.5511 59.464 47.0191 58.204 47.0191 56.644C47.0191 55.924 46.8991 55.252 46.6591 54.628C46.4191 53.98 46.0831 53.416 45.6511 52.936C45.2191 52.432 44.6911 52.048 44.0671 51.784C43.4431 51.496 42.7351 51.352 41.9431 51.352ZM41.9431 42.424C44.0071 42.424 45.9511 42.76 47.7751 43.432C49.5991 44.104 51.1831 45.052 52.5271 46.276C53.8951 47.5 54.9751 48.976 55.7671 50.704C56.5591 52.432 56.9551 54.364 56.9551 56.5C56.9551 58.684 56.5591 60.64 55.7671 62.368C54.9751 64.072 53.8951 65.524 52.5271 66.724C51.1831 67.924 49.5991 68.848 47.7751 69.496C45.9511 70.12 44.0071 70.432 41.9431 70.432C39.8791 70.432 37.9351 70.12 36.1111 69.496C34.2871 68.848 32.6911 67.924 31.3231 66.724C29.9791 65.524 28.9111 64.072 28.1191 62.368C27.3271 60.64 26.9311 58.684 26.9311 56.5C26.9311 54.364 27.3271 52.432 28.1191 50.704C28.9111 48.976 29.9791 47.5 31.3231 46.276C32.6911 45.052 34.2871 44.104 36.1111 43.432C37.9351 42.76 39.8791 42.424 41.9431 42.424ZM87.2418 42.856V58.912C87.2418 60.904 86.9418 62.62 86.3418 64.06C85.7418 65.5 84.8898 66.7 83.7858 67.66C82.7058 68.596 81.3858 69.292 79.8258 69.748C78.2898 70.204 76.5738 70.432 74.6778 70.432C72.7818 70.432 71.0538 70.204 69.4938 69.748C67.9578 69.292 66.6378 68.596 65.5338 67.66C64.4538 66.7 63.6138 65.5 63.0138 64.06C62.4138 62.62 62.1138 60.904 62.1138 58.912V42.856H71.9778V57.976C71.9778 58.504 71.9898 59.008 72.0138 59.488C72.0618 59.968 72.1698 60.4 72.3378 60.784C72.5058 61.144 72.7698 61.432 73.1298 61.648C73.5138 61.864 74.0298 61.972 74.6778 61.972C75.3258 61.972 75.8298 61.864 76.1898 61.648C76.5738 61.432 76.8498 61.144 77.0178 60.784C77.1858 60.4 77.2818 59.968 77.3058 59.488C77.3538 59.008 77.3778 58.504 77.3778 57.976V42.856H87.2418ZM93.4133 42.856H103.277V61.288H111.557V70H93.4133V42.856Z" fill="white"/>
</svg>
