<svg width="20" height="17" viewBox="0 0 20 17" fill="none" xmlns="http://www.w3.org/2000/svg">
<path d="M19.02 7.25166C19.262 5.7418 18.4548 4.36174 16.7266 3.32708C16.5963 2.88364 16.3642 2.47678 16.0488 2.13892C15.7334 1.80106 15.3435 1.54155 14.9101 1.38107C13.8148 0.980954 12.6066 1.02397 11.5425 1.50097C11.0517 1.05853 10.4053 0.82905 9.74535 0.86297C8.66163 0.90488 7.55635 1.58556 6.85862 2.33587C6.55735 2.19199 6.23066 2.10892 5.89726 2.0914C5.56385 2.07389 5.23027 2.12227 4.91558 2.23379C3.86552 2.58282 2.96495 3.544 2.5959 4.67975C2.02927 4.96474 1.55561 5.40534 1.23045 5.94991C0.905288 6.49448 0.742094 7.12046 0.759997 7.75447C0.779907 9.14773 1.54859 10.4061 2.69534 10.9601C3.43234 12.1133 4.37317 12.8137 5.49495 13.0433C5.76032 13.0971 6.03046 13.124 6.30125 13.1236C7.01973 13.1117 7.72812 12.9524 8.38256 12.6556C8.51174 13.2274 8.80428 13.7494 9.22461 14.158L9.27818 14.2058C10.6953 15.3325 12.0068 15.2478 12.4709 15.2101C12.6179 15.2773 12.9183 15.6969 13.0216 16.1069L13.0341 16.1572L13.2234 16.5963C13.2652 16.6925 13.3341 16.7744 13.4218 16.8319C13.5094 16.8894 13.612 16.9201 13.7169 16.92H16.512C16.5985 16.9204 16.6837 16.8998 16.7605 16.8599C16.8372 16.8201 16.9032 16.7623 16.9527 16.6913C17.0021 16.6204 17.0337 16.5386 17.0445 16.4528C17.0554 16.367 17.0453 16.2799 17.0151 16.1988L16.958 16.0472C16.7733 15.5719 16.6421 15.0775 16.567 14.5732L16.6131 14.4824C17.2357 14.0899 18.9712 13.0378 18.6228 10.6899C18.9442 10.184 19.1469 9.61181 19.2157 9.01635C19.2845 8.42089 19.2176 7.81758 19.02 7.25166ZM5.60154 8.86228C5.6179 8.94552 5.64989 9.02491 5.69581 9.09625C5.76241 9.19887 5.79758 9.31871 5.797 9.44104C5.79641 9.56338 5.76009 9.68288 5.69251 9.78485L5.66688 9.82247C5.60736 9.90891 5.52737 9.97927 5.43404 10.0273C5.34071 10.0753 5.23695 10.0994 5.13201 10.0976C5.02708 10.0957 4.92424 10.0679 4.83267 10.0166C4.74111 9.96532 4.66366 9.89216 4.60725 9.80366C4.46545 9.58621 4.36824 9.34276 4.32125 9.08745C4.27011 8.79369 4.29122 8.4919 4.38274 8.20811C3.69579 7.80111 3.31662 7.26134 3.24864 6.59386C3.23968 6.49183 3.25508 6.38912 3.29358 6.29421C3.33208 6.19929 3.39257 6.11488 3.47008 6.04792C3.54759 5.98096 3.63989 5.93337 3.73939 5.90906C3.8389 5.88476 3.94275 5.88443 4.0424 5.90812C4.17137 5.93638 4.28838 6.00402 4.37724 6.10169C4.4661 6.19935 4.52241 6.32221 4.53839 6.45328C4.5704 6.75325 4.78809 7.03562 5.49407 7.31018L6.00172 7.50818C6.03394 7.5206 6.06287 7.54026 6.08629 7.56563C6.10971 7.591 6.127 7.62141 6.13681 7.65452C6.14662 7.68763 6.14869 7.72254 6.14287 7.75658C6.13705 7.79062 6.1235 7.82286 6.10325 7.85083L5.78425 8.29083C5.63058 8.50203 5.57074 8.68925 5.60154 8.86228ZM14.5479 5.5724C14.6245 5.50905 14.7146 5.4642 14.8113 5.44133C14.908 5.41847 15.0087 5.41819 15.1055 5.44054C15.2024 5.46288 15.2927 5.50724 15.3696 5.57017C15.4465 5.6331 15.5079 5.71291 15.5489 5.8034C15.7823 6.30182 15.8816 6.8525 15.837 7.40104C15.7739 8.08304 15.4779 8.71774 14.9549 9.29304C14.8918 9.36136 14.8147 9.41537 14.7289 9.45145C14.6432 9.48753 14.5507 9.50484 14.4576 9.50222C14.3646 9.49961 14.2732 9.47713 14.1896 9.43628C14.106 9.39544 14.0321 9.33719 13.9729 9.26543C13.8744 9.14494 13.8227 8.99307 13.827 8.83755C13.8313 8.68203 13.8914 8.53327 13.9964 8.41843C14.7472 7.57968 14.598 6.80253 14.3785 6.33547C14.3181 6.20752 14.3019 6.06308 14.3325 5.92492C14.3632 5.78675 14.439 5.66273 14.5479 5.5724ZM9.58563 4.41113C9.63491 3.80228 9.93631 3.23039 10.4837 2.70481C10.5494 2.64256 10.6277 2.59506 10.7132 2.56546C10.7988 2.53587 10.8896 2.52487 10.9798 2.5332C11.0699 2.54153 11.1572 2.56899 11.2359 2.61376C11.3146 2.65853 11.3828 2.71957 11.436 2.79281L11.4549 2.81877C11.5437 2.9432 11.5845 3.09557 11.5698 3.24774C11.5551 3.39992 11.4858 3.54164 11.3748 3.64674C11.0729 3.9411 10.9044 4.2359 10.8819 4.51464C10.8724 4.64665 10.8924 4.77912 10.9403 4.9025C10.9828 5.01783 10.991 5.14298 10.9641 5.26289C10.9371 5.38281 10.8761 5.49238 10.7884 5.57845C10.7118 5.65489 10.6175 5.71107 10.5138 5.74194C10.4102 5.7728 10.3005 5.77737 10.1946 5.75524C10.0887 5.7331 9.99002 5.68496 9.90741 5.61515C9.82479 5.54534 9.76086 5.45606 9.72137 5.35537C9.60645 5.05464 9.56007 4.73206 9.58563 4.41113ZM9.91563 9.05049L9.61368 8.93994C8.77647 8.63348 8.29038 8.83896 8.03419 9.055C7.9398 9.13383 7.82492 9.18417 7.70298 9.20012C7.58104 9.21607 7.45708 9.19699 7.34559 9.14509C7.24648 9.09968 7.16051 9.02986 7.09574 8.94218C7.03096 8.85449 6.98948 8.75181 6.9752 8.64373C6.96091 8.53566 6.97428 8.42572 7.01404 8.32422C7.05381 8.22271 7.11868 8.13296 7.20259 8.06335C7.73576 7.61708 8.58232 7.29456 9.75129 7.62588C10.7131 7.04398 11.2085 6.92463 12.1927 7.12483C12.2788 7.14225 12.3603 7.17709 12.4324 7.2272C12.5044 7.27731 12.5655 7.34163 12.6117 7.4162C12.658 7.49078 12.6885 7.57404 12.7014 7.66085C12.7143 7.74767 12.7093 7.8362 12.6867 7.92101C12.6432 8.08105 12.5399 8.21829 12.3982 8.30447C12.2565 8.39064 12.0871 8.41919 11.925 8.38422C11.2356 8.23682 11.0297 8.34638 10.187 8.87922L9.91563 9.05049ZM13.5509 13.0319C13.3356 13.0321 13.1207 13.0114 12.9094 12.9702C12.2592 12.8376 11.6622 12.5171 11.1924 12.0484C11.121 11.9789 11.0667 11.8938 11.0338 11.7998C11.0009 11.7057 10.9903 11.6053 11.0028 11.5065C11.0153 11.4076 11.0505 11.313 11.1057 11.2301C11.161 11.1472 11.2347 11.0782 11.3211 11.0286C11.4434 10.9573 11.5857 10.928 11.7263 10.9451C11.8668 10.9622 11.9979 11.0248 12.0996 11.1233C12.3925 11.4195 12.7668 11.6219 13.175 11.7049C13.8211 11.8259 14.5559 11.6241 15.364 11.1049C15.5011 11.015 15.6668 10.9796 15.8286 11.0057C15.9904 11.0319 16.1366 11.1176 16.2384 11.246C16.2936 11.316 16.3335 11.3968 16.3557 11.4831C16.3779 11.5694 16.3819 11.6595 16.3674 11.7474C16.3529 11.8354 16.3203 11.9193 16.2716 11.994C16.2228 12.0686 16.1591 12.1323 16.0844 12.181C15.2068 12.747 14.3586 13.0319 13.5513 13.0319H13.5509Z" fill="white"/>
</svg>
