<svg width="33" height="33" viewBox="0 0 33 33" fill="none" xmlns="http://www.w3.org/2000/svg">
<path d="M20.2026 32.2081H5.02023C2.24752 32.2081 0 29.9606 0 27.1879V12.0056C0 9.23287 2.24752 6.98535 5.02023 6.98535H20.2026C22.9753 6.98535 25.2228 9.23287 25.2228 12.0056V27.1879C25.2228 29.9606 22.9753 32.2081 20.2026 32.2081Z" fill="#4532D1" fill-opacity="0.5"/>
<path d="M26.9798 25.4308H11.7994C9.02669 25.4308 6.77917 23.1833 6.77917 20.4106V5.22823C6.77917 2.45552 9.02669 0.208008 11.7994 0.208008H26.9817C29.7544 0.208008 32.002 2.45552 32.002 5.22823V20.4106C32 23.1833 29.7525 25.4308 26.9798 25.4308Z" fill="#CCADFF"/>
<path d="M20.0924 6.98535H6.77917V20.3005C6.77917 23.1331 9.07689 25.4308 11.9095 25.4308H25.2246V12.1156C25.2227 9.28307 22.9269 6.98535 20.0924 6.98535Z" fill="#CCADFF"/>
</svg>
