<svg width="28" height="29" viewBox="0 0 28 29" fill="none" xmlns="http://www.w3.org/2000/svg">
<path fill-rule="evenodd" clip-rule="evenodd" d="M20.4224 5.36654H25.7808C26.664 5.36654 27.3792 6.08334 27.3792 6.96654C27.3792 7.84974 26.6624 8.56654 25.7792 8.56654H23.5648V24.9345C23.5648 26.6385 22.2704 28.0209 20.6736 28.0209H6.10724C4.51044 28.0209 3.21604 26.6385 3.21604 24.9345V8.56814H1.68484C0.801639 8.56814 0.0848389 7.85134 0.0848389 6.96814C0.0848389 6.08494 0.801639 5.36814 1.68484 5.36814H7.02244L8.09604 2.27694C8.50724 1.09134 9.71204 0.296143 11.0928 0.296143H16.4016C17.8016 0.296143 19.0112 1.10734 19.4112 2.31374L20.4224 5.36654ZM11.0928 3.49614C11.08 3.49614 11.0688 3.49614 11.0592 3.49774L10.4496 5.24814H17.0128L16.4336 3.49774C16.424 3.49614 16.4144 3.49614 16.4032 3.49614H11.0928ZM8.70715 22.8594C8.70715 23.7426 9.42395 24.4594 10.3072 24.4594C11.192 24.4594 11.9072 23.7426 11.9072 22.8578V13.1586C11.9072 12.2754 11.1904 11.5586 10.3072 11.5586C9.42395 11.5586 8.70715 12.2754 8.70715 13.1586V22.8594ZM14.8352 22.8594C14.8352 23.7426 15.552 24.4594 16.4352 24.4594C17.3184 24.4594 18.0352 23.7426 18.0352 22.8578V13.1586C18.0352 12.2754 17.3184 11.5586 16.4352 11.5586C15.552 11.5586 14.8352 12.2754 14.8352 13.1586V22.8594Z" fill="white"/>
</svg>
