<svg width="19" height="20" viewBox="0 0 19 20" fill="none" xmlns="http://www.w3.org/2000/svg">
<path d="M9.58101 0.287598C14.6125 0.287598 18.6913 4.50236 18.6913 9.70152C18.6913 14.9007 14.6125 19.1154 9.58101 19.1154C4.54956 19.1154 0.470764 14.9007 0.470764 9.70152C0.470764 4.50236 4.54956 0.287598 9.58101 0.287598ZM13.9953 11.2751H5.58942V11.2786C5.58942 13.6772 7.47111 15.6216 9.79233 15.6216C12.1135 15.6216 13.9953 13.6772 13.9953 11.2786V11.2751ZM6.99822 5.81948C6.22017 5.81948 5.5894 6.47126 5.5894 7.27526C5.5894 8.07925 6.22017 8.73102 6.99822 8.73102C7.77627 8.73102 8.40702 8.07925 8.40702 7.27524C8.40702 6.47126 7.77627 5.81948 6.9982 5.81948H6.99822ZM12.5865 5.81948C11.8084 5.81948 11.1776 6.47126 11.1776 7.27526C11.1776 8.07925 11.8084 8.73102 12.5865 8.73102C13.3645 8.73102 13.9953 8.07925 13.9953 7.27524C13.9953 6.47126 13.3645 5.81948 12.5865 5.81948Z" fill="white"/>
</svg>
