<svg width="22" height="22" viewBox="0 0 22 22" fill="none" xmlns="http://www.w3.org/2000/svg">
<path d="M18.4349 8.81544H13.4785C15.399 1.72244 12.1552 1.36017 12.1552 1.36017C10.7804 1.36017 11.0654 2.4473 10.9614 2.62854C10.9614 6.09733 7.27704 8.81544 7.27704 8.81544V18.6524C7.27704 19.6234 8.6003 19.9731 9.1194 19.9731H16.5663C17.2672 19.9731 17.8379 18.1351 17.8379 18.1351C19.6803 11.8704 19.6803 10.0064 19.6803 10.0064C19.6803 8.71203 18.4349 8.81544 18.4349 8.81544Z" fill="white"/>
<path d="M5.24316 8.81879H2.27532C1.6624 8.81879 1.65295 9.4208 1.65295 9.4208L2.26587 19.3417C2.26587 19.9731 2.8984 19.9731 2.8984 19.9731H5.46709C6.00222 19.9731 5.99749 19.5554 5.99749 19.5554V9.57112C5.99749 8.80916 5.24316 8.81879 5.24316 8.81879Z" fill="white"/>
</svg>
