<svg width="20" height="21" viewBox="0 0 20 21" fill="none" xmlns="http://www.w3.org/2000/svg">
<path d="M10 20.9992C9.54214 20.9985 9.08505 20.9615 8.63305 20.8884C8.28522 20.8355 7.95914 20.6863 7.69169 20.4578C7.42423 20.2292 7.22607 19.9303 7.11962 19.595C6.95198 19.0488 6.61248 18.5714 6.15162 18.2337C5.69077 17.8961 5.13321 17.7163 4.56192 17.721C4.36602 17.7211 4.17069 17.7421 3.97925 17.7837C3.85024 17.8111 3.71872 17.8248 3.58684 17.8248C3.30663 17.8242 3.03017 17.7603 2.77812 17.6379C2.52607 17.5155 2.30494 17.3377 2.13124 17.1178C1.57101 16.395 1.11118 15.5997 0.764291 14.7536C0.637172 14.4251 0.604479 14.0675 0.669907 13.7214C0.735335 13.3752 0.896276 13.0543 1.13454 12.7948C1.5806 12.2972 1.82728 11.6524 1.82728 10.9841C1.82728 10.3158 1.5806 9.67102 1.13454 9.17338C0.89622 8.91394 0.735243 8.59299 0.669813 8.24683C0.604382 7.90067 0.637109 7.5431 0.764291 7.21457C1.10313 6.36451 1.56359 5.56814 2.13124 4.85038C2.31154 4.62927 2.53883 4.45109 2.7966 4.3288C3.05436 4.20651 3.33613 4.14317 3.62143 4.14339C3.75403 4.14324 3.88628 4.15701 4.01601 4.18447C4.20658 4.22701 4.40124 4.24858 4.59651 4.24879C5.16692 4.24786 5.72227 4.06568 6.18239 3.72856C6.6425 3.39144 6.98358 2.91681 7.15637 2.37321C7.26269 2.03785 7.46081 1.73897 7.72831 1.51046C7.9958 1.28195 8.32195 1.13293 8.66981 1.08031C9.11807 1.02461 9.56937 0.996807 10.0211 0.997072C10.4825 0.997209 10.9435 1.025 11.4015 1.08031C11.7494 1.13293 12.0756 1.28195 12.343 1.51046C12.6105 1.73897 12.8087 2.03785 12.915 2.37321C13.1106 3.01613 13.5474 3.55845 14.1338 3.88664C14.5423 4.12131 15.0048 4.24556 15.4759 4.24716C15.6708 4.24698 15.8651 4.22541 16.0553 4.18284C16.1851 4.15538 16.3173 4.14162 16.4499 4.14177C16.7305 4.13802 17.008 4.20001 17.2603 4.32278C17.5126 4.44554 17.7326 4.62568 17.9028 4.84875C18.4309 5.5991 18.8769 6.40404 19.233 7.2497C19.3602 7.57824 19.3929 7.9358 19.3275 8.28196C19.2621 8.62812 19.1011 8.94907 18.8628 9.20852C18.4167 9.70616 18.17 10.3509 18.17 11.0192C18.17 11.6875 18.4167 12.3323 18.8628 12.8299C19.101 13.0894 19.262 13.4104 19.3274 13.7565C19.3928 14.1027 19.3601 14.4602 19.233 14.7888C18.8951 15.6393 18.4346 16.4358 17.8661 17.1529C17.689 17.3726 17.4653 17.5501 17.2111 17.6724C16.9568 17.7947 16.6785 17.8587 16.3964 17.8599C16.2692 17.8602 16.1423 17.8464 16.0181 17.8189C15.8278 17.7763 15.6335 17.7547 15.4386 17.7545C14.8682 17.7557 14.3128 17.938 13.8526 18.2751C13.3923 18.6121 13.051 19.0866 12.8777 19.6301C12.7713 19.9655 12.5731 20.2644 12.3057 20.493C12.0382 20.7215 11.7121 20.8707 11.3643 20.9236C10.9205 20.9636 10.447 20.9992 10 20.9992ZM9.82596 7.48645C9.07764 7.48645 8.34612 7.70835 7.72392 8.1241C7.10171 8.53984 6.61676 9.13075 6.33039 9.82211C6.04402 10.5135 5.96909 11.2742 6.11508 12.0082C6.26107 12.7421 6.62142 13.4163 7.15057 13.9454C7.67971 14.4746 8.35388 14.8349 9.08782 14.9809C9.82176 15.1269 10.5825 15.052 11.2739 14.7656C11.9652 14.4792 12.5561 13.9943 12.9719 13.3721C13.3876 12.7499 13.6095 12.0183 13.6095 11.27C13.6085 10.2669 13.2096 9.30508 12.5002 8.59574C11.7909 7.8864 10.8291 7.48745 9.82596 7.48645ZM9.82596 13.4321C9.39835 13.4321 8.98034 13.3053 8.62479 13.0677C8.26924 12.8301 7.99213 12.4925 7.82849 12.0974C7.66485 11.7023 7.62203 11.2676 7.70546 10.8482C7.78888 10.4288 7.99479 10.0436 8.29716 9.74123C8.59953 9.43886 8.98477 9.23295 9.40416 9.14952C9.82356 9.0661 10.2583 9.10892 10.6533 9.27256C11.0484 9.4362 11.3861 9.71331 11.6236 10.0689C11.8612 10.4244 11.988 10.8424 11.988 11.27C11.9871 11.8432 11.7591 12.3926 11.3538 12.7979C10.9485 13.2032 10.3991 13.4312 9.82596 13.4321Z" fill="white"/>
</svg>
